<svg width="50" height="50" viewBox="0 0 50 50" fill="none"
    xmlns="http://www.w3.org/2000/svg">
    <rect width="50" height="50" rx="12" fill="#1B1622"/>
    <path d="M9.08063 38.6684C9.34427 38.663 9.60626 38.6254 9.86079 38.5564C9.6534 38.231 9.41199 37.9286 9.14064 37.6542C9.03916 37.5895 8.94522 37.5137 8.86057 37.4282C8.82227 37.2624 8.80879 37.0918 8.82056 36.922C8.53976 35.8175 8.40526 34.6808 8.42051 33.5413C8.39124 32.3721 8.74223 31.2251 9.42073 30.2725C10.0809 31.9629 10.9211 34.1034 11.5812 36.0738C11.6233 36.3583 11.7651 36.6185 11.9813 36.808C12.1414 36.864 12.2414 36.638 12.4214 36.808C12.4888 36.9682 12.5228 37.1404 12.5214 37.3141C12.8112 37.6795 13.2173 37.9347 13.6722 38.0373C14.1271 38.14 14.6034 38.0838 15.022 37.8783C14.9057 37.5453 14.6976 37.252 14.4219 37.0321C14.3619 36.976 14.2018 36.92 14.1418 36.864C14.0833 36.7423 14.0093 36.6287 13.9218 36.526C13.3275 35.7708 12.8427 34.9358 12.4815 34.0454C12.1246 32.9356 11.9556 31.774 11.9813 30.6086V30.3265C11.9813 30.2705 11.9213 30.1004 12.0213 30.1585C12.2014 30.1585 12.1414 30.2705 12.2014 30.3825C12.2414 30.6086 12.2414 31.1147 12.4815 31.1147C12.5815 30.8906 12.5214 30.4966 12.6415 30.2705C12.6523 30.5468 12.7277 30.8167 12.8615 31.0587C12.943 30.7659 12.9635 30.4595 12.9215 30.1585C13.0278 29.952 13.2056 29.7913 13.4217 29.7064C13.2986 29.7547 13.1954 29.8431 13.1286 29.9571C13.0617 30.0712 13.0351 30.2044 13.053 30.3354C13.0708 30.4664 13.1322 30.5876 13.2272 30.6795C13.3222 30.7715 13.4453 30.8289 13.5768 30.8425C13.7083 30.8562 13.8406 30.8252 13.9524 30.7547C14.0642 30.6842 14.1492 30.5782 14.1936 30.4537C14.2379 30.3291 14.2392 30.1933 14.1972 30.0679C14.1552 29.9426 14.0723 29.835 13.9618 29.7624C13.9556 30.1028 14.0533 30.437 14.2418 30.7206C14.3845 30.3424 14.4055 29.929 14.3019 29.5383C14.9852 29.1435 15.5567 28.581 15.9622 27.9039C16.7777 28.3035 17.637 28.6063 18.5228 28.8062C19.5898 28.9743 20.6766 28.9743 21.7436 28.8062C22.2437 28.7481 22.6838 28.6361 23.2239 28.5801C24.8069 28.345 26.4129 28.3073 28.005 28.4681C28.005 29.0302 27.885 29.7064 27.885 30.3825C27.845 31.0394 27.845 31.6981 27.885 32.355C27.9917 32.836 28.0321 33.3294 28.005 33.8213C27.945 34.3274 27.845 34.8355 27.785 35.3417C27.7161 35.5801 27.6758 35.8259 27.665 36.0738C27.5826 36.3094 27.5486 36.559 27.565 36.808C27.6815 36.9553 27.8327 37.0715 28.005 37.1461C28.005 37.3701 27.885 37.4261 27.885 37.6522C28.1836 38.0704 28.618 38.3721 29.1142 38.5056C29.6104 38.6391 30.1375 38.5963 30.6057 38.3844C30.3535 37.8646 30.0153 37.3912 29.6054 36.9841C29.2902 36.1187 29.2142 35.1843 29.3854 34.2794C29.4094 33.9742 29.4629 33.672 29.5454 33.3772L29.8855 32.7011C30.1655 32.0249 30.3256 31.1227 30.5457 30.3905C30.6113 30.8892 30.7252 31.3802 30.8857 31.8569C30.9479 32.0036 31.0013 32.1539 31.0457 32.307C31.1058 32.533 31.1058 32.8711 31.1658 33.0951C31.1658 33.1532 31.1658 33.3212 31.2258 33.2092C31.197 33.2617 31.1768 33.3184 31.1658 33.3772C31.2622 34.3135 31.2956 35.2551 31.2658 36.1959C31.2569 36.4232 31.3356 36.6452 31.4859 36.816C31.6176 36.787 31.7542 36.787 31.8859 36.816C31.9577 36.9977 32.0113 37.186 32.046 37.3781C32.3202 37.7164 32.7015 37.951 33.127 38.0434C33.5525 38.1358 33.9968 38.0803 34.3865 37.8863C34.2689 37.4709 34.0325 37.0989 33.7064 36.816C33.4023 36.5283 33.1576 36.1837 32.9862 35.8018C32.8231 35.3656 32.7156 34.9105 32.6661 34.4475C32.5759 33.8876 32.5759 33.3169 32.6661 32.7571C32.7381 32.5563 32.7917 32.3494 32.8262 32.1389C32.9076 31.3716 32.9277 30.5989 32.8862 29.8284C33.5328 29.8635 34.1718 29.6753 34.6962 29.2955C35.2206 28.9157 35.5986 28.3672 35.7668 27.7419C35.8868 27.3201 36.0338 26.9065 36.207 26.5036C36.339 26.269 36.486 26.0432 36.6471 25.8275L36.9872 25.0373C37.0793 24.7414 37.1528 24.4401 37.2072 24.1351C37.7534 22.9013 38.5427 21.7903 39.5277 20.8683C40.2873 21.1822 41.1237 21.2603 41.9283 21.0924C42.1854 21.087 42.4408 21.0494 42.6885 20.9803C42.9072 20.8829 43.1351 20.8072 43.3686 20.7543C43.7815 20.894 44.2132 20.9702 44.6489 20.9803C44.9063 20.86 45.1481 20.7088 45.3691 20.5302C45.5655 20.4371 45.74 20.3036 45.8813 20.1385C46.0227 19.9734 46.1276 19.7804 46.1893 19.572V19.2339C45.9962 18.8287 45.6619 18.5079 45.2491 18.3317C44.7334 17.9413 44.2696 17.4869 43.8687 16.9794C43.5834 16.6845 43.353 16.3411 43.1886 15.9652C43.1486 15.7951 43.1886 15.6271 43.1486 15.4571C43.0595 15.1363 42.8869 14.845 42.6485 14.6128C42.3243 14.2858 41.9451 14.0183 41.5282 13.8227C41.5731 13.7795 41.6074 13.7265 41.6282 13.6678C41.6491 13.6091 41.6559 13.5464 41.6482 13.4846C41.5899 13.3299 41.4936 13.1923 41.3681 13.0845C41.8704 12.836 42.3189 12.4914 42.6885 12.0703C42.8364 11.9391 42.9461 11.7704 43.0059 11.582C43.0658 11.3936 43.0736 11.1925 43.0285 11C42.3464 11.6002 41.5776 12.0939 40.748 12.4643C40.4947 12.3368 40.206 12.2973 39.9278 12.3523C40.1337 12.0559 40.2325 11.6982 40.2079 11.3381C39.9878 11.5081 39.5877 11.9582 39.2676 12.1843C39.1687 12.2939 39.0541 12.3883 38.9276 12.4644C38.7853 12.4665 38.6468 12.5105 38.5294 12.591C38.412 12.6714 38.3209 12.7846 38.2674 12.9164C38.2865 13.1386 38.3622 13.3521 38.4875 13.5366C37.9662 14.1599 37.3097 14.6562 36.5679 14.9879C35.8262 15.3197 35.0186 15.478 34.2065 15.451H33.2062C32.9462 15.451 32.6661 15.339 32.326 15.339C31.8997 15.311 31.472 15.311 31.0457 15.339C29.7254 15.395 28.5651 15.509 27.2849 15.6771C25.5645 15.8471 23.8441 15.8471 22.0636 15.8471C19.1769 15.9624 16.2871 15.7158 13.4617 15.113C12.9289 14.9227 12.3669 14.8272 11.8013 14.8309C11.4212 14.8309 11.0411 14.9449 10.581 14.9449H9.32068C8.6274 14.9591 7.9532 15.1745 7.38022 15.5651C6.85761 15.9866 6.51443 16.5907 6.42001 17.2555C6.31996 18.0599 6.31996 18.8736 6.42001 19.678C6.58314 21.3071 6.65659 22.944 6.64004 24.5812C6.65556 25.4086 6.62216 26.2362 6.54002 27.0597C6.46121 27.4318 6.40774 27.8087 6.38 28.188V28.8082C6.42309 28.9922 6.4366 29.182 6.42001 29.3703C6.32144 29.5867 6.24762 29.8135 6.19995 30.0464C6.22915 30.6187 6.3231 31.1858 6.48002 31.7368C6.57298 32.3153 6.62644 32.8995 6.64004 33.4852C6.70008 34.3294 6.76008 35.3437 6.76008 36.3019C6.72948 36.6019 6.72948 36.9042 6.76008 37.2041C6.89299 37.2449 7.02058 37.3013 7.14017 37.3722C7.20017 37.5422 7.10015 37.8803 7.14017 38.1063C7.19678 38.3503 7.33046 38.5696 7.52142 38.7318C7.71237 38.8939 7.95045 38.9902 8.20042 39.0065L9.08063 38.6684Z" fill="#09FEEB"/>
</svg>
