<svg width="80" height="80" viewBox="0 0 80 80" fill="none"
    xmlns="http://www.w3.org/2000/svg">
    <path d="M5.76136 67.3203C6.28864 67.3094 6.81262 67.2341 7.32168 67.0962C6.90689 66.4454 6.42407 65.8405 5.88137 65.2918C5.67841 65.1625 5.49054 65.0108 5.32124 64.8397C5.24464 64.5081 5.21768 64.167 5.24121 63.8274C4.67962 61.6184 4.41062 59.3451 4.44111 57.0659C4.38258 54.7276 5.08456 52.4335 6.44155 50.5284C7.76185 53.9092 9.44224 58.1902 10.7625 62.1311C10.8467 62.6999 11.1303 63.2203 11.5628 63.5994C11.8828 63.7114 12.0828 63.2593 12.4429 63.5994C12.5776 63.9197 12.6457 64.2641 12.643 64.6116C13.2225 65.3424 14.0347 65.8528 14.9445 66.0581C15.8543 66.2633 16.807 66.1511 17.6442 65.7399C17.4114 65.074 16.9954 64.4873 16.4439 64.0475C16.3239 63.9355 16.0038 63.8235 15.8837 63.7114C15.7667 63.4681 15.6188 63.2408 15.4436 63.0353C14.2552 61.5251 13.2855 59.8549 12.563 58.0741C11.8493 55.8546 11.5112 53.5314 11.5628 51.2005V50.6364C11.5628 50.5244 11.4427 50.1843 11.6428 50.3003C12.0029 50.3003 11.8828 50.5244 12.0029 50.7484C12.0828 51.2006 12.0828 52.2127 12.563 52.2127C12.763 51.7647 12.643 50.9765 12.8831 50.5244C12.9048 51.077 13.0555 51.6168 13.3232 52.1008C13.4862 51.5152 13.527 50.9023 13.4432 50.3003C13.6558 49.8875 14.0113 49.5661 14.4434 49.3961C14.1974 49.4929 13.9909 49.6695 13.8572 49.8976C13.7235 50.1257 13.6703 50.3922 13.706 50.6541C13.7418 50.9161 13.8645 51.1585 14.0545 51.3424C14.2445 51.5264 14.4907 51.6412 14.7537 51.6684C15.0167 51.6957 15.2813 51.6339 15.5049 51.4929C15.7286 51.3518 15.8984 51.1398 15.9872 50.8907C16.076 50.6416 16.0785 50.37 15.9945 50.1193C15.9104 49.8686 15.7446 49.6534 15.5236 49.5081C15.5114 50.189 15.7068 50.8575 16.0838 51.4246C16.3691 50.6682 16.4111 49.8415 16.2038 49.06C17.5706 48.2704 18.7135 47.1454 19.5246 45.7913C21.1554 46.5905 22.8742 47.1961 24.6458 47.5957C26.7798 47.932 28.9533 47.932 31.0873 47.5957C32.0875 47.4797 32.9677 47.2556 34.048 47.1436C37.2138 46.6733 40.4258 46.5981 43.6102 46.9196C43.6102 48.0438 43.3702 49.3961 43.3702 50.7484C43.2901 52.0622 43.2901 53.3796 43.3702 54.6934C43.5836 55.6554 43.6643 56.6421 43.6102 57.626C43.4902 58.6383 43.2901 59.6545 43.1701 60.6668C43.0322 61.1436 42.9517 61.6352 42.93 62.1311C42.7654 62.6021 42.6973 63.1015 42.73 63.5994C42.963 63.8941 43.2654 64.1264 43.6102 64.2756C43.6102 64.7237 43.3702 64.8357 43.3702 65.2878C43.9672 66.1243 44.8361 66.7276 45.8285 66.9946C46.8209 67.2617 47.8752 67.176 48.8114 66.7522C48.3071 65.7126 47.6307 64.7657 46.8109 63.9515C46.1805 62.2208 46.0285 60.3521 46.3709 58.5422C46.4188 57.9318 46.526 57.3275 46.6909 56.7378L47.371 55.3855C47.9312 54.0332 48.2513 52.2288 48.6914 50.7644C48.8226 51.7617 49.0504 52.7439 49.3715 53.6971C49.4959 53.9906 49.6028 54.2912 49.6916 54.5973C49.8117 55.0494 49.8117 55.7256 49.9317 56.1737C49.9317 56.2897 49.9317 56.6258 50.0517 56.4018C49.9942 56.5067 49.9537 56.6202 49.9317 56.7378C50.1244 58.6103 50.1913 60.4937 50.1317 62.3752C50.1138 62.8297 50.2714 63.2738 50.5718 63.6154C50.8354 63.5574 51.1084 63.5574 51.372 63.6154C51.5154 63.9787 51.6227 64.3553 51.6921 64.7397C52.2405 65.4161 53.0031 65.8855 53.8541 66.0702C54.7051 66.2549 55.5937 66.1441 56.3732 65.7559C56.1379 64.9252 55.6651 64.1812 55.0128 63.6154C54.4047 63.04 53.9154 62.3508 53.5725 61.5869C53.2463 60.7145 53.0312 59.8045 52.9324 58.8783C52.7519 57.7586 52.7519 56.6172 52.9324 55.4975C53.0763 55.096 53.1835 54.6822 53.2524 54.2613C53.4154 52.7265 53.4555 51.1813 53.3725 49.6402C54.6656 49.7103 55.9436 49.3341 56.9924 48.5744C58.0413 47.8147 58.7972 46.7178 59.1338 45.4672C59.3736 44.6236 59.6676 43.7963 60.014 42.9906C60.2781 42.5214 60.5721 42.0697 60.8942 41.6383L61.5744 40.058C61.7587 39.4663 61.9057 38.8636 62.0145 38.2535C63.107 35.7861 64.6854 33.564 66.6556 31.72C68.1747 32.3478 69.8476 32.5039 71.4567 32.1681C71.9708 32.1574 72.4816 32.0821 72.977 31.9441C73.4146 31.7492 73.8702 31.5978 74.3373 31.492C75.1631 31.7714 76.0264 31.9239 76.898 31.9441C77.4127 31.7033 77.8963 31.4011 78.3383 31.0439C78.731 30.8576 79.0801 30.5907 79.3628 30.2605C79.6454 29.9303 79.8553 29.5442 79.9787 29.1274V28.4513C79.5926 27.6408 78.9239 26.9992 78.0982 26.6468C77.067 25.8661 76.1393 24.9572 75.3376 23.9422C74.7669 23.3525 74.3062 22.6655 73.9772 21.9137C73.8973 21.5737 73.9772 21.2376 73.8973 20.8975C73.7192 20.2561 73.374 19.6734 72.897 19.2091C72.2486 18.555 71.4902 18.0201 70.6565 17.6287C70.7464 17.5425 70.8149 17.4365 70.8565 17.3191C70.8982 17.2017 70.9119 17.0762 70.8965 16.9526C70.7799 16.6431 70.5872 16.3679 70.3364 16.1524C71.3408 15.6555 72.238 14.9663 72.977 14.1239C73.2729 13.8616 73.4923 13.5242 73.612 13.1474C73.7317 12.7705 73.7473 12.3684 73.6571 11.9834C72.293 13.1838 70.7553 14.1712 69.0961 14.912C68.5894 14.6569 68.0122 14.5781 67.4557 14.6881C67.8675 14.0952 68.065 13.3797 68.0158 12.6595C67.5757 12.9997 66.7755 13.8999 66.1354 14.352C65.9375 14.5712 65.7083 14.7599 65.4552 14.9121C65.1706 14.9164 64.8937 15.0045 64.6589 15.1653C64.424 15.3261 64.2418 15.5525 64.1349 15.8163C64.173 16.2606 64.3246 16.6876 64.575 17.0566C63.5324 18.3032 62.2195 19.2959 60.736 19.9593C59.2524 20.6227 57.6373 20.9395 56.013 20.8855H54.0126C53.4924 20.8855 52.9323 20.6614 52.2522 20.6614C51.3995 20.6053 50.5442 20.6053 49.6915 20.6614C47.0509 20.7735 44.7304 21.0015 42.1698 21.3376C38.729 21.6776 35.2882 21.6776 31.7274 21.6776C25.9539 21.9082 20.1743 21.4149 14.5234 20.2093C13.4579 19.8288 12.334 19.6379 11.2026 19.6452C10.4424 19.6452 9.68227 19.8732 8.76205 19.8732H6.24146C4.85491 19.9015 3.50651 20.3324 2.36053 21.1135C1.31531 21.9566 0.628963 23.1648 0.440118 24.4943C0.240024 26.1032 0.240024 27.7306 0.440118 29.3395C0.766373 32.5977 0.913282 35.8714 0.880181 39.1457C0.911215 40.8006 0.844419 42.4559 0.680143 44.1029C0.522513 44.847 0.415584 45.6009 0.360092 46.3594V47.5997C0.446284 47.9678 0.473297 48.3473 0.440118 48.724C0.242982 49.1567 0.0953412 49.6104 0 50.0763C0.0583946 51.2207 0.246304 52.3549 0.56013 53.4571C0.746048 54.614 0.852979 55.7824 0.880181 56.9539C1.00025 58.6423 1.12026 60.6708 1.12026 62.5872C1.05906 63.1871 1.05906 63.7917 1.12026 64.3916C1.38607 64.4731 1.64125 64.586 1.88043 64.7277C2.00044 65.0678 1.8004 65.7439 1.88043 66.196C1.99366 66.6841 2.26102 67.1227 2.64293 67.4469C3.02484 67.7712 3.501 67.9639 4.00094 67.9964L5.76136 67.3203Z" fill="#09FEEB" />
</svg>