<svg width="36" height="36" viewBox="0 0 36 36" fill="none"
    xmlns="http://www.w3.org/2000/svg">
    <path d="M22.7521 31.0671H5.40386C5.27648 31.0671 5.15035 31.042 5.03267 30.9933C4.91499 30.9445 4.80806 30.8731 4.71799 30.783C4.62793 30.693 4.55648 30.586 4.50773 30.4683C4.45899 30.3507 4.4339 30.2245 4.4339 30.0972C4.4339 29.9698 4.45899 29.8436 4.50773 29.726C4.55648 29.6083 4.62793 29.5014 4.71799 29.4113C4.80806 29.3212 4.91499 29.2498 5.03267 29.201C5.15035 29.1523 5.27648 29.1272 5.40386 29.1272H22.7521C26.7423 29.1272 29.9886 25.8809 29.9886 21.8906C29.9886 17.9004 26.7423 14.6541 22.7521 14.6541H7.06148C6.93252 14.6565 6.80437 14.6332 6.68452 14.5856C6.56467 14.5379 6.45552 14.4669 6.36345 14.3765C6.27139 14.2862 6.19826 14.1784 6.14833 14.0595C6.09841 13.9406 6.0727 13.8129 6.0727 13.6839C6.0727 13.555 6.09841 13.4273 6.14833 13.3084C6.19826 13.1894 6.27139 13.0817 6.36345 12.9913C6.45552 12.901 6.56467 12.8299 6.68452 12.7823C6.80437 12.7346 6.93252 12.7113 7.06148 12.7138H22.7521C25.194 12.7138 27.496 13.6708 29.2338 15.4085C30.9716 17.1463 31.9285 19.4483 31.9285 21.8906C31.9285 24.3329 30.9726 26.6346 29.2338 28.371C27.495 30.1074 25.194 31.0671 22.7521 31.0671Z" fill="#09FEEB"/>
    <path d="M14.5392 23.1065C14.3036 23.1067 14.0761 23.0208 13.8994 22.8649L4.40121 14.5195C4.29737 14.4284 4.21422 14.316 4.15733 14.1901C4.10044 14.0642 4.07113 13.9275 4.07137 13.7893C4.0716 13.6511 4.10137 13.5146 4.15868 13.3888C4.21599 13.2631 4.29952 13.151 4.40367 13.0602L13.4413 5.17184C13.5373 5.08807 13.6488 5.02403 13.7696 4.98336C13.8903 4.9427 14.0178 4.92621 14.145 4.93485C14.2721 4.94348 14.3962 4.97707 14.5103 5.03369C14.6245 5.09031 14.7263 5.16885 14.8101 5.26483C14.8939 5.36082 14.9579 5.47236 14.9986 5.59309C15.0392 5.71383 15.0557 5.84139 15.0471 5.96849C15.0385 6.0956 15.0049 6.21976 14.9483 6.33389C14.8916 6.44801 14.8131 6.54987 14.7171 6.63364L6.51375 13.7918L15.1801 21.4077C15.3283 21.5379 15.4333 21.7101 15.4811 21.9015C15.5289 22.0929 15.5172 22.2943 15.4476 22.4789C15.3779 22.6634 15.2537 22.8224 15.0914 22.9345C14.9291 23.0466 14.7365 23.1066 14.5392 23.1065Z" fill="#09FEEB"/>
</svg>
