<svg width="24" height="24" viewBox="0 0 24 24" fill="none"
    xmlns="http://www.w3.org/2000/svg">
    <path d="M18.6094 10.6641C16.4391 10.6641 14.6719 12.4313 14.6719 14.6016C14.6719 14.925 14.7234 15.2344 14.7961 15.5367L9.14766 17.0812C8.78437 16.1367 8.06719 15.3727 7.16016 14.9414L8.93203 9.27891C9.01875 9.28359 9.10078 9.30469 9.1875 9.30469C11.3578 9.30469 13.125 7.53984 13.125 5.36719C13.125 3.19688 11.3578 1.42969 9.1875 1.42969C7.01484 1.42969 5.25 3.19688 5.25 5.36719C5.25 6.99375 6.23906 8.39063 7.64766 8.99063L5.89453 14.5969C5.75859 14.5828 5.625 14.5547 5.48438 14.5547C3.31406 14.5547 1.54688 16.3219 1.54688 18.4922C1.54688 20.6648 3.31406 22.4297 5.48438 22.4297C7.65469 22.4297 9.42188 20.6648 9.42188 18.4922C9.42188 18.4523 9.4125 18.4125 9.41016 18.3703L15.3211 16.7555C16.0242 17.8289 17.2336 18.5391 18.6094 18.5391C20.7797 18.5391 22.5469 16.7719 22.5469 14.6016C22.5469 12.4313 20.7797 10.6641 18.6094 10.6641ZM6.5625 5.36719C6.5625 3.91875 7.73906 2.74219 9.1875 2.74219C10.6359 2.74219 11.8125 3.91875 11.8125 5.36719C11.8125 6.81562 10.6359 7.99219 9.1875 7.99219C7.73906 7.99219 6.5625 6.81562 6.5625 5.36719ZM5.48438 21.1172C4.03594 21.1172 2.85938 19.9406 2.85938 18.4922C2.85938 17.0438 4.03594 15.8672 5.48438 15.8672C6.93281 15.8672 8.10938 17.0438 8.10938 18.4922C8.10938 19.9406 6.93281 21.1172 5.48438 21.1172ZM18.6094 17.2266C17.1609 17.2266 15.9844 16.05 15.9844 14.6016C15.9844 13.1531 17.1609 11.9766 18.6094 11.9766C20.0578 11.9766 21.2344 13.1531 21.2344 14.6016C21.2344 16.05 20.0578 17.2266 18.6094 17.2266Z" fill="white" stroke="white"/>
</svg>
