<svg width="36" height="36" viewBox="0 0 36 36" fill="none"
    xmlns="http://www.w3.org/2000/svg">
    <path d="M33.4126 16.0696L20.7855 2.8263C19.4996 1.47764 17.3797 1.45538 16.0657 2.7765L2.62394 16.2914C1.05119 17.8727 1.83805 19.7811 4.06799 19.7669L7.8743 19.7426L6.74959 18.6254V30.8415C6.74959 32.6925 8.2415 34.1951 10.0869 34.1951H14.1396V31.9606H10.0869C9.47969 31.9606 8.98476 31.4621 8.98476 30.8415V18.6254C8.98476 18.0056 8.48005 17.5043 7.86005 17.5082L4.05374 17.5325C3.89352 17.5335 3.78978 17.5166 3.75311 17.5012C3.82411 17.531 3.92232 17.6204 3.98441 17.771C4.04559 17.9194 4.03945 18.0476 4.01241 18.1146C4.02899 18.0735 4.09251 17.984 4.20897 17.8669L17.6507 4.35198C18.0778 3.9226 18.7497 3.92965 19.1676 4.36799L31.7946 17.6113C31.9059 17.728 31.966 17.8175 31.982 17.8604C31.9607 17.8032 31.9578 17.6904 32.0119 17.5599C32.0672 17.4269 32.1533 17.346 32.2142 17.3189C32.1768 17.3355 32.0753 17.3539 31.9183 17.3549L31.9325 19.5893C34.1443 19.5752 34.9365 17.6679 33.4126 16.0696ZM26.2975 34.1951C28.141 34.1951 29.6348 32.6911 29.6348 30.8415V18.4938L28.5244 19.6111L31.9325 19.5893L31.9183 17.3549L28.5101 17.3766C27.8957 17.3805 27.3997 17.8796 27.3997 18.4938V30.8415C27.3997 31.4606 26.903 31.9606 26.2975 31.9606H22.2449V34.1951H26.2975ZM20.2301 23.0245C20.2331 23.0245 20.2349 34.2001 20.2349 34.2001H22.4701V23.0192C22.4701 21.7889 21.4642 20.79 20.2301 20.79H15.7693C14.5357 20.79 13.5294 21.7861 13.5294 23.0192H15.7646C15.7646 23.0252 20.2301 23.0245 20.2301 23.0245ZM15.7646 23.0192H13.5294V34.2001H15.7646V23.0192Z" fill="#09FEEB"/>
</svg>
