<svg width="40" height="40" viewBox="0 0 40 40" fill="none"
    xmlns="http://www.w3.org/2000/svg">
    <path d="M2.88068 33.6601C3.14432 33.6547 3.40631 33.6171 3.66084 33.5481C3.45345 33.2227 3.21204 32.9203 2.94068 32.6459C2.83921 32.5812 2.74527 32.5054 2.66062 32.4199C2.62232 32.2541 2.60884 32.0835 2.62061 31.9137C2.33981 30.8092 2.20531 29.6725 2.22056 28.5329C2.19129 27.3638 2.54228 26.2168 3.22078 25.2642C3.88093 26.9546 4.72112 29.0951 5.38127 31.0655C5.42336 31.35 5.56517 31.6102 5.78138 31.7997C5.9414 31.8557 6.04142 31.6297 6.22147 31.7997C6.2888 31.9599 6.32283 32.1321 6.32149 32.3058C6.61127 32.6712 7.01735 32.9264 7.47226 33.029C7.92716 33.1317 8.40349 33.0755 8.82208 32.87C8.70572 32.537 8.49769 32.2437 8.22194 32.0238C8.16193 31.9677 8.00188 31.9117 7.94187 31.8557C7.88335 31.734 7.80939 31.6204 7.72181 31.5177C7.1276 30.7625 6.64273 29.9275 6.2815 29.0371C5.92463 27.9273 5.7556 26.7657 5.78138 25.6003V25.3182C5.78138 25.2622 5.72137 25.0921 5.82139 25.1502C6.00144 25.1502 5.9414 25.2622 6.00143 25.3742C6.04142 25.6003 6.04142 26.1064 6.2815 26.1064C6.38152 25.8823 6.32149 25.4883 6.44153 25.2622C6.45239 25.5385 6.52775 25.8084 6.66158 26.0504C6.74309 25.7576 6.76352 25.4512 6.72159 25.1502C6.82788 24.9437 7.00565 24.783 7.22171 24.6981C7.09868 24.7464 6.99546 24.8348 6.9286 24.9488C6.86175 25.0629 6.83513 25.1961 6.85301 25.3271C6.8709 25.4581 6.93225 25.5793 7.02724 25.6712C7.12223 25.7632 7.24534 25.8206 7.37685 25.8342C7.50835 25.8479 7.64062 25.8169 7.75246 25.7464C7.8643 25.6759 7.94922 25.5699 7.9936 25.4454C8.03799 25.3208 8.03927 25.185 7.99724 25.0596C7.95521 24.9343 7.87231 24.8267 7.76182 24.7541C7.7557 25.0945 7.85339 25.4287 8.04189 25.7123C8.18456 25.3341 8.20555 24.9207 8.10192 24.53C8.78529 24.1352 9.35674 23.5727 9.76229 22.8956C10.5777 23.2952 11.4371 23.598 12.3229 23.7979C13.3899 23.966 14.4766 23.966 15.5436 23.7979C16.0438 23.7398 16.4839 23.6278 17.024 23.5718C18.6069 23.3367 20.2129 23.299 21.8051 23.4598C21.8051 24.0219 21.6851 24.6981 21.6851 25.3742C21.6451 26.0311 21.6451 26.6898 21.6851 27.3467C21.7918 27.8277 21.8322 28.3211 21.8051 28.813C21.7451 29.3191 21.6451 29.8272 21.585 30.3334C21.5161 30.5718 21.4758 30.8176 21.465 31.0655C21.3827 31.3011 21.3487 31.5507 21.365 31.7997C21.4815 31.947 21.6327 32.0632 21.8051 32.1378C21.8051 32.3618 21.6851 32.4178 21.6851 32.6439C21.9836 33.0621 22.4181 33.3638 22.9143 33.4973C23.4104 33.6308 23.9376 33.588 24.4057 33.3761C24.1535 32.8563 23.8154 32.3829 23.4055 31.9758C23.0903 31.1104 23.0142 30.176 23.1854 29.2711C23.2094 28.9659 23.263 28.6637 23.3455 28.3689L23.6855 27.6928C23.9656 27.0166 24.1256 26.1144 24.3457 25.3822C24.4113 25.8809 24.5252 26.3719 24.6858 26.8486C24.7479 26.9953 24.8014 27.1456 24.8458 27.2987C24.9058 27.5247 24.9058 27.8628 24.9658 28.0868C24.9658 28.1449 24.9658 28.3129 25.0258 28.2009C24.9971 28.2534 24.9768 28.3101 24.9658 28.3689C25.0622 29.3052 25.0956 30.2468 25.0659 31.1876C25.0569 31.4149 25.1357 31.6369 25.2859 31.8077C25.4177 31.7787 25.5542 31.7787 25.686 31.8077C25.7577 31.9894 25.8113 32.1777 25.846 32.3698C26.1202 32.7081 26.5015 32.9427 26.927 33.0351C27.3525 33.1275 27.7968 33.072 28.1866 32.878C28.0689 32.4626 27.8325 32.0906 27.5064 31.8077C27.2023 31.52 26.9577 31.1754 26.7863 30.7935C26.6231 30.3573 26.5156 29.9022 26.4662 29.4392C26.3759 28.8793 26.3759 28.3086 26.4662 27.7488C26.5382 27.548 26.5917 27.3411 26.6262 27.1306C26.7077 26.3633 26.7278 25.5906 26.6862 24.8201C27.3328 24.8552 27.9718 24.667 28.4962 24.2872C29.0206 23.9074 29.3986 23.3589 29.5669 22.7336C29.6868 22.3118 29.8338 21.8982 30.007 21.4953C30.139 21.2607 30.286 21.0349 30.4471 20.8192L30.7872 20.029C30.8794 19.7331 30.9528 19.4318 31.0072 19.1268C31.5535 17.893 32.3427 16.782 33.3278 15.86C34.0873 16.1739 34.9238 16.252 35.7283 16.0841C35.9854 16.0787 36.2408 16.0411 36.4885 15.972C36.7073 15.8746 36.9351 15.7989 37.1687 15.746C37.5815 15.8857 38.0132 15.9619 38.449 15.972C38.7063 15.8517 38.9482 15.7005 39.1691 15.5219C39.3655 15.4288 39.5401 15.2953 39.6814 15.1302C39.8227 14.9651 39.9276 14.7721 39.9893 14.5637V14.2256C39.7963 13.8204 39.462 13.4996 39.0491 13.3234C38.5335 12.933 38.0696 12.4786 37.6688 11.9711C37.3834 11.6762 37.1531 11.3328 36.9886 10.9569C36.9486 10.7868 36.9886 10.6188 36.9486 10.4488C36.8596 10.128 36.687 9.83672 36.4485 9.60454C36.1243 9.2775 35.7451 9.01004 35.3283 8.81437C35.3732 8.77124 35.4074 8.71823 35.4283 8.65953C35.4491 8.60084 35.456 8.5381 35.4483 8.47629C35.3899 8.32155 35.2936 8.18397 35.1682 8.07619C35.6704 7.82773 36.119 7.48315 36.4885 7.06196C36.6364 6.93081 36.7461 6.76209 36.806 6.57368C36.8659 6.38527 36.8737 6.18418 36.8286 5.9917C36.1465 6.5919 35.3776 7.08558 34.548 7.45602C34.2947 7.32846 34.0061 7.28905 33.7279 7.34403C33.9337 7.04758 34.0325 6.68986 34.0079 6.32977C33.7879 6.49984 33.3878 6.94994 33.0677 7.17599C32.9687 7.28559 32.8541 7.37996 32.7276 7.45605C32.5853 7.45821 32.4468 7.50225 32.3294 7.58265C32.212 7.66306 32.1209 7.77627 32.0675 7.90815C32.0865 8.13029 32.1623 8.34382 32.2875 8.52829C31.7662 9.15158 31.1098 9.64793 30.368 9.97965C29.6262 10.3114 28.8186 10.4697 28.0065 10.4427H27.0063C26.7462 10.4427 26.4662 10.3307 26.1261 10.3307C25.6998 10.3027 25.2721 10.3027 24.8458 10.3307C23.5255 10.3867 22.3652 10.5007 21.0849 10.6688C19.3645 10.8388 17.6441 10.8388 15.8637 10.8388C12.977 10.9541 10.0871 10.7075 7.2617 10.1047C6.72896 9.91439 6.16699 9.81893 5.6013 9.8226C5.22122 9.8226 4.84113 9.93662 4.38102 9.93662H3.12073C2.42745 9.95076 1.75325 10.1662 1.18027 10.5568C0.657655 10.9783 0.314481 11.5824 0.220059 12.2472C0.120012 13.0516 0.120012 13.8653 0.220059 14.6697C0.383186 16.2988 0.456641 17.9357 0.440091 19.5729C0.455608 20.4003 0.42221 21.2279 0.340071 22.0514C0.261257 22.4235 0.207792 22.8004 0.180046 23.1797V23.7999C0.223142 23.9839 0.236649 24.1737 0.220059 24.362C0.121491 24.5784 0.0476706 24.8052 0 25.0381C0.0291973 25.6104 0.123152 26.1775 0.280065 26.7285C0.373024 27.307 0.426489 27.8912 0.440091 28.4769C0.500124 29.3211 0.56013 30.3354 0.56013 31.2936C0.52953 31.5936 0.52953 31.8959 0.56013 32.1958C0.693035 32.2366 0.820625 32.293 0.940215 32.3639C1.00022 32.5339 0.900202 32.872 0.940215 33.098C0.996831 33.342 1.13051 33.5613 1.32146 33.7235C1.51242 33.8856 1.7505 33.9819 2.00047 33.9982L2.88068 33.6601Z" fill="#09FEEB"/>
</svg>
