<svg width="48" height="48" viewBox="0 0 48 48" fill="none"
    xmlns="http://www.w3.org/2000/svg">
    <circle cx="24" cy="24" r="24" fill="#09FEEB"/>
    <g clip-path="url(#clip0_9_901)">
        <path d="M23.4173 12.9172C25.2204 12.9174 26.9893 13.4092 28.5338 14.3396C30.0782 15.27 31.3398 16.6039 32.1828 18.1978C33.0259 19.7917 33.4184 21.5852 33.3182 23.3855C33.218 25.1858 32.6289 26.9247 31.6143 28.4152L35.5693 32.372C35.7968 32.5995 35.7968 32.9687 35.5693 33.198L34.5805 34.1867C34.5264 34.2409 34.4622 34.2838 34.3914 34.3131C34.3207 34.3424 34.2449 34.3575 34.1684 34.3575C34.0918 34.3575 34.0161 34.3424 33.9453 34.3131C33.8746 34.2838 33.8104 34.2409 33.7563 34.1867L29.9028 30.3367C28.6921 31.3839 27.246 32.1225 25.6879 32.4895C24.1298 32.8564 22.5061 32.8407 20.9554 32.4437C19.4047 32.0467 17.9731 31.2803 16.783 30.2099C15.5928 29.1395 14.6794 27.7969 14.1209 26.2968C13.5623 24.7967 13.3752 23.1837 13.5754 21.5956C13.7757 20.0075 14.3573 18.4914 15.2708 17.1769C16.1842 15.8624 17.4023 14.7886 18.8209 14.0471C20.2395 13.3056 21.8166 12.9186 23.4173 12.919V12.9172ZM23.4173 15.3672C22.4271 15.3521 21.4439 15.534 20.5248 15.9024C19.6056 16.2708 18.7689 16.8184 18.0634 17.5132C17.3578 18.208 16.7975 19.0362 16.4151 19.9496C16.0327 20.863 15.8357 21.8434 15.8357 22.8336C15.8357 23.8238 16.0327 24.8042 16.4151 25.7176C16.7975 26.631 17.3578 27.4592 18.0634 28.154C18.7689 28.8488 19.6056 29.3964 20.5248 29.7648C21.4439 30.1332 22.4271 30.3151 23.4173 30.3C25.3777 30.27 27.2476 29.4701 28.6234 28.0732C29.9991 26.6762 30.7702 24.7943 30.7702 22.8336C30.7702 20.873 29.9991 18.991 28.6234 17.594C27.2476 16.1971 25.3777 15.3973 23.4173 15.3672Z" fill="#151219"/>
    </g>
    <defs>
        <clipPath id="clip0_9_901">
            <rect width="28" height="28" fill="white" transform="translate(10 10)"/>
        </clipPath>
    </defs>
</svg>
